<svg width="108" height="108" viewBox="0 0 108 108" fill="none" xmlns="http://www.w3.org/2000/svg">
<path d="M0 0H108V108H0V0Z" fill="#E6E6E6"/>
<path d="M61.7685 61H60.3835L64.3892 50.0909H65.7528L69.7585 61H68.3736L65.1136 51.8168H65.0284L61.7685 61ZM62.2798 56.7386H67.8622V57.9105H62.2798V56.7386ZM71.2873 64.0682V52.8182H72.5018V54.1179H72.6509C72.7433 53.9759 72.8711 53.7947 73.0344 53.5746C73.2013 53.3509 73.4393 53.152 73.7482 52.978C74.0607 52.8004 74.4833 52.7116 75.016 52.7116C75.7049 52.7116 76.3121 52.8839 76.8377 53.2283C77.3633 53.5728 77.7734 54.0611 78.0682 54.6932C78.3629 55.3253 78.5103 56.071 78.5103 56.9304C78.5103 57.7969 78.3629 58.5479 78.0682 59.1836C77.7734 59.8157 77.3651 60.3058 76.843 60.6538C76.321 60.9982 75.7191 61.1705 75.0373 61.1705C74.5117 61.1705 74.0909 61.0835 73.7749 60.9094C73.4588 60.7319 73.2156 60.5312 73.0451 60.3075C72.8746 60.0803 72.7433 59.892 72.6509 59.7429H72.5444V64.0682H71.2873ZM72.5231 56.9091C72.5231 57.527 72.6136 58.0721 72.7947 58.5444C72.9759 59.0131 73.2404 59.3807 73.5884 59.647C73.9364 59.9098 74.3626 60.0412 74.8668 60.0412C75.3924 60.0412 75.831 59.9027 76.1825 59.6257C76.5376 59.3452 76.804 58.9687 76.9815 58.4964C77.1626 58.0206 77.2532 57.4915 77.2532 56.9091C77.2532 56.3338 77.1644 55.8153 76.9869 55.3537C76.8129 54.8885 76.5483 54.521 76.1932 54.2511C75.8416 53.9776 75.3995 53.8409 74.8668 53.8409C74.3555 53.8409 73.9258 53.9705 73.5778 54.2298C73.2298 54.4854 72.967 54.8441 72.7894 55.3058C72.6119 55.7638 72.5231 56.2983 72.5231 56.9091ZM80.4279 64.0682V52.8182H81.6424V54.1179H81.7915C81.8839 53.9759 82.0117 53.7947 82.1751 53.5746C82.342 53.3509 82.5799 53.152 82.8888 52.978C83.2013 52.8004 83.6239 52.7116 84.1566 52.7116C84.8455 52.7116 85.4528 52.8839 85.9783 53.2283C86.5039 53.5728 86.9141 54.0611 87.2088 54.6932C87.5036 55.3253 87.6509 56.071 87.6509 56.9304C87.6509 57.7969 87.5036 58.5479 87.2088 59.1836C86.9141 59.8157 86.5057 60.3058 85.9837 60.6538C85.4616 60.9982 84.8597 61.1705 84.1779 61.1705C83.6523 61.1705 83.2315 61.0835 82.9155 60.9094C82.5994 60.7319 82.3562 60.5312 82.1857 60.3075C82.0153 60.0803 81.8839 59.892 81.7915 59.7429H81.685V64.0682H80.4279ZM81.6637 56.9091C81.6637 57.527 81.7543 58.0721 81.9354 58.5444C82.1165 59.0131 82.381 59.3807 82.729 59.647C83.0771 59.9098 83.5032 60.0412 84.0075 60.0412C84.533 60.0412 84.9716 59.9027 85.3232 59.6257C85.6783 59.3452 85.9446 58.9687 86.1222 58.4964C86.3033 58.0206 86.3938 57.4915 86.3938 56.9091C86.3938 56.3338 86.305 55.8153 86.1275 55.3537C85.9535 54.8885 85.6889 54.521 85.3338 54.2511C84.9822 53.9776 84.5401 53.8409 84.0075 53.8409C83.4961 53.8409 83.0664 53.9705 82.7184 54.2298C82.3704 54.4854 82.1076 54.8441 81.93 55.3058C81.7525 55.7638 81.6637 56.2983 81.6637 56.9091Z" fill="black"/>
<path d="M29.142 50.0909V61H26.6705L22.7287 55.2685H22.6648V61H19.7031V50.0909H22.2173L26.0952 55.8011H26.1804V50.0909H29.142ZM34.5273 61.1491C33.6396 61.1491 32.8796 60.9734 32.2475 60.6218C31.6154 60.2667 31.1307 59.7731 30.7933 59.141C30.456 58.5053 30.2873 57.7685 30.2873 56.9304C30.2873 56.0923 30.456 55.3572 30.7933 54.7251C31.1307 54.0895 31.6154 53.5959 32.2475 53.2443C32.8796 52.8892 33.6396 52.7116 34.5273 52.7116C35.4151 52.7116 36.1751 52.8892 36.8072 53.2443C37.4393 53.5959 37.924 54.0895 38.2614 54.7251C38.5987 55.3572 38.7674 56.0923 38.7674 56.9304C38.7674 57.7685 38.5987 58.5053 38.2614 59.141C37.924 59.7731 37.4393 60.2667 36.8072 60.6218C36.1751 60.9734 35.4151 61.1491 34.5273 61.1491ZM34.5487 58.9759C34.7972 58.9759 35.0121 58.8924 35.1932 58.7255C35.3743 58.5586 35.5146 58.3207 35.614 58.0117C35.7134 57.7028 35.7631 57.3352 35.7631 56.9091C35.7631 56.4794 35.7134 56.1119 35.614 55.8065C35.5146 55.4975 35.3743 55.2596 35.1932 55.0927C35.0121 54.9258 34.7972 54.8423 34.5487 54.8423C34.2859 54.8423 34.0604 54.9258 33.8722 55.0927C33.6839 55.2596 33.5401 55.4975 33.4407 55.8065C33.3413 56.1119 33.2915 56.4794 33.2915 56.9091C33.2915 57.3352 33.3413 57.7028 33.4407 58.0117C33.5401 58.3207 33.6839 58.5586 33.8722 58.7255C34.0604 58.8924 34.2859 58.9759 34.5487 58.9759ZM44.8398 52.8182V54.9489H39.4492V52.8182H44.8398ZM40.4933 50.858H43.4336V58.3686C43.4336 58.4822 43.4531 58.5781 43.4922 58.6562C43.5312 58.7308 43.5916 58.7876 43.6733 58.8267C43.755 58.8622 43.8597 58.88 43.9876 58.88C44.0763 58.88 44.1793 58.8693 44.2965 58.848C44.4173 58.8267 44.506 58.8089 44.5629 58.7947L44.989 60.8615C44.8576 60.9006 44.6694 60.9485 44.4244 61.0053C44.1829 61.0621 43.8952 61.0994 43.5614 61.1172C42.8867 61.1527 42.3203 61.0835 41.8622 60.9094C41.4041 60.7319 41.0597 60.4531 40.8288 60.0732C40.598 59.6932 40.4862 59.2173 40.4933 58.6456V50.858ZM49.8722 61.1491C48.9987 61.1491 48.2458 60.9822 47.6137 60.6484C46.9852 60.3111 46.5004 59.8281 46.1595 59.1996C45.8222 58.5675 45.6535 57.8111 45.6535 56.9304C45.6535 56.0852 45.824 55.3466 46.1649 54.7145C46.5058 54.0824 46.9869 53.5906 47.6084 53.239C48.2298 52.8874 48.9632 52.7116 49.8083 52.7116C50.4262 52.7116 50.9855 52.8075 51.4862 52.9993C51.9869 53.1911 52.4149 53.4698 52.77 53.8356C53.1251 54.1978 53.3985 54.6381 53.5903 55.1566C53.782 55.6751 53.8779 56.2592 53.8779 56.9091V57.5909H46.5697V55.9716H51.172C51.1684 55.7372 51.108 55.5312 50.9909 55.3537C50.8772 55.1726 50.7227 55.0323 50.5274 54.9329C50.3357 54.8299 50.1173 54.7784 49.8722 54.7784C49.6343 54.7784 49.4159 54.8299 49.2171 54.9329C49.0182 55.0323 48.8584 55.1708 48.7377 55.3484C48.6205 55.5259 48.5583 55.7337 48.5512 55.9716V57.7188C48.5512 57.9815 48.6063 58.2159 48.7164 58.4219C48.8264 58.6278 48.9845 58.7894 49.1904 58.9066C49.3964 59.0238 49.645 59.0824 49.9362 59.0824C50.1386 59.0824 50.3232 59.054 50.4901 58.9972C50.6606 58.9403 50.8062 58.8587 50.9269 58.7521C51.0477 58.642 51.1365 58.5107 51.1933 58.358H53.8779C53.7856 58.9261 53.5672 59.4197 53.2227 59.8388C52.8783 60.2543 52.422 60.5774 51.8538 60.8082C51.2892 61.0355 50.6286 61.1491 49.8722 61.1491Z" fill="black"/>
</svg>
